<svg width="10" height="8" viewBox="0 0 10 8" fill="none" xmlns="http://www.w3.org/2000/svg">
<path d="M8.82589 1.45089L9.02526 0.992358L9.01348 0.987237L9.00145 0.982728L8.82589 1.45089ZM8.51339 1.51339L8.86651 1.86738L8.8738 1.86011L8.8808 1.85253L8.51339 1.51339ZM6.71429 3.30804H6.21429V4.51302L7.0674 3.66203L6.71429 3.30804ZM6.71429 4.97321L7.06784 4.61966L6.21429 3.76611V4.97321H6.71429ZM8.51339 6.77232L8.8808 6.43318L8.87402 6.42584L8.86695 6.41877L8.51339 6.77232ZM8.82589 6.83482L9.00145 7.30299L9.01348 7.29848L9.02526 7.29336L8.82589 6.83482ZM9.5 1.71429C9.5 1.39087 9.30277 1.11302 9.02526 0.992358L8.62653 1.90943C8.55437 1.87805 8.5 1.80556 8.5 1.71429H9.5ZM9.00145 0.982728C8.92559 0.954278 8.82494 0.928571 8.71429 0.928571V1.92857C8.69193 1.92857 8.67661 1.92595 8.66926 1.92444C8.66131 1.9228 8.65532 1.92093 8.65033 1.91906L9.00145 0.982728ZM8.71429 0.928571C8.51658 0.928571 8.30561 1.00133 8.14599 1.17425L8.8808 1.85253C8.8573 1.87799 8.82758 1.89855 8.79508 1.91187C8.76348 1.92482 8.73519 1.92857 8.71429 1.92857V0.928571ZM8.16028 1.1594L6.36117 2.95404L7.0674 3.66203L8.86651 1.86738L8.16028 1.1594ZM7.21429 3.30804V2.57143H6.21429V3.30804H7.21429ZM7.21429 2.57143C7.21429 1.58546 6.41454 0.785714 5.42857 0.785714V1.78571C5.86225 1.78571 6.21429 2.13775 6.21429 2.57143H7.21429ZM5.42857 0.785714H2.28571V1.78571H5.42857V0.785714ZM2.28571 0.785714C1.29975 0.785714 0.5 1.58546 0.5 2.57143H1.5C1.5 2.13775 1.85204 1.78571 2.28571 1.78571V0.785714ZM0.5 2.57143V5.71429H1.5V2.57143H0.5ZM0.5 5.71429C0.5 6.70025 1.29975 7.5 2.28571 7.5V6.5C1.85204 6.5 1.5 6.14796 1.5 5.71429H0.5ZM2.28571 7.5H5.42857V6.5H2.28571V7.5ZM5.42857 7.5C6.41454 7.5 7.21429 6.70025 7.21429 5.71429H6.21429C6.21429 6.14796 5.86225 6.5 5.42857 6.5V7.5ZM7.21429 5.71429V4.97321H6.21429V5.71429H7.21429ZM6.36073 5.32677L8.15984 7.12587L8.86695 6.41877L7.06784 4.61966L6.36073 5.32677ZM8.14599 7.11146C8.30561 7.28438 8.51658 7.35714 8.71429 7.35714V6.35714C8.73519 6.35714 8.76348 6.36089 8.79508 6.37384C8.82758 6.38716 8.8573 6.40773 8.8808 6.43318L8.14599 7.11146ZM8.71429 7.35714C8.82494 7.35714 8.92559 7.33144 9.00145 7.30299L8.65033 6.36666C8.65532 6.36479 8.66131 6.36291 8.66926 6.36128C8.67661 6.35976 8.69193 6.35714 8.71429 6.35714V7.35714ZM9.02526 7.29336C9.30277 7.1727 9.5 6.89485 9.5 6.57143H8.5C8.5 6.48015 8.55437 6.40766 8.62653 6.37629L9.02526 7.29336ZM9.5 6.57143V1.71429H8.5V6.57143H9.5Z" fill="#CCCCCC"/>
</svg>
